<svg xmlns="http://www.w3.org/2000/svg" xmlns:xlink="http://www.w3.org/1999/xlink" width="500" zoomAndPan="magnify" viewBox="0 0 375 374.999991" height="500" preserveAspectRatio="xMidYMid meet" version="1.0"><defs><g/><clipPath id="e612213785"><path d="M 75 231 L 300 231 L 300 309.386719 L 75 309.386719 Z M 75 231 " clip-rule="nonzero"/></clipPath><clipPath id="d10fa6952b"><path d="M 74.621094 65.636719 L 300 65.636719 L 300 145 L 74.621094 145 Z M 74.621094 65.636719 " clip-rule="nonzero"/></clipPath><clipPath id="6bc7b2243a"><path d="M 122.914062 96.21875 L 243.664062 96.21875 L 243.664062 221.46875 L 122.914062 221.46875 Z M 122.914062 96.21875 " clip-rule="nonzero"/></clipPath></defs><g clip-path="url(#e612213785)"><path fill="#0a5acc" d="M 270.53125 270.3125 C 270.386719 270.285156 270.246094 270.269531 270.097656 270.269531 C 270.085938 270.269531 270.070312 270.269531 270.058594 270.269531 C 266.691406 270.328125 263.027344 270.378906 259.109375 270.425781 C 266.597656 260.375 272.691406 248.785156 277.121094 236.066406 L 294.257812 236.066406 C 288.429688 248.871094 280.394531 260.4375 270.53125 270.3125 Z M 253.070312 284.722656 C 246.417969 289.21875 239.375 292.984375 232.046875 295.996094 C 235.578125 293.738281 239.007812 291.203125 242.324219 288.394531 C 247.027344 284.414062 251.414062 279.957031 255.449219 275.085938 C 259.039062 275.046875 262.429688 275.003906 265.613281 274.957031 C 261.675781 278.46875 257.488281 281.734375 253.070312 284.722656 Z M 121.964844 284.722656 C 117.742188 281.871094 113.734375 278.761719 109.949219 275.429688 C 113.078125 275.460938 116.410156 275.480469 119.925781 275.496094 C 123.867188 280.203125 128.140625 284.523438 132.710938 288.394531 C 136.027344 291.203125 139.457031 293.734375 142.988281 295.996094 C 135.660156 292.984375 128.621094 289.21875 121.964844 284.722656 Z M 80.777344 236.066406 L 97.914062 236.066406 C 102.410156 248.96875 108.613281 260.707031 116.25 270.859375 C 112.191406 270.839844 108.414062 270.800781 104.941406 270.746094 C 94.878906 260.777344 86.691406 249.058594 80.777344 236.066406 Z M 240.792969 270.609375 C 246.316406 260.648438 250.894531 249.027344 254.238281 236.066406 L 272.222656 236.066406 C 267.5 249.121094 261.042969 260.71875 253.277344 270.492188 C 249.320312 270.535156 245.152344 270.574219 240.792969 270.609375 Z M 238.082031 275.246094 C 241.984375 275.214844 245.75 275.183594 249.355469 275.152344 C 240.1875 285.425781 229.464844 293.339844 217.804688 298.386719 C 225.300781 292.664062 232.160156 284.839844 238.082031 275.246094 Z M 130.515625 275.511719 C 132.667969 275.511719 134.875 275.511719 137.125 275.507812 C 143.015625 284.988281 149.824219 292.726562 157.261719 298.398438 C 145.722656 293.410156 135.109375 285.617188 126.003906 275.507812 C 127.484375 275.511719 128.984375 275.511719 130.515625 275.511719 Z M 176.367188 270.808594 C 170.234375 270.816406 164.3125 270.828125 158.523438 270.84375 C 154.914062 260.941406 151.90625 249.203125 149.738281 236.066406 L 173.957031 236.066406 C 174.546875 248.996094 175.363281 260.722656 176.367188 270.808594 Z M 194.027344 270.796875 C 191.394531 270.800781 188.742188 270.800781 186.070312 270.800781 C 184.363281 270.800781 182.679688 270.804688 181.007812 270.804688 C 179.996094 260.738281 179.171875 248.988281 178.578125 236.066406 L 196.460938 236.066406 C 195.867188 248.984375 195.042969 260.734375 194.027344 270.796875 Z M 216.550781 270.746094 C 210.753906 270.765625 204.777344 270.785156 198.671875 270.792969 C 199.675781 260.710938 200.492188 248.988281 201.082031 236.066406 L 225.296875 236.066406 C 223.136719 249.160156 220.140625 260.867188 216.550781 270.746094 Z M 214.132812 287.652344 C 216.144531 283.941406 218.027344 279.824219 219.773438 275.351562 C 224.15625 275.332031 228.425781 275.308594 232.558594 275.28125 C 230.25 278.792969 227.792969 282.054688 225.203125 285.039062 C 218.875 292.320312 211.964844 297.660156 204.722656 300.929688 C 208.042969 297.507812 211.199219 293.070312 214.132812 287.652344 Z M 196.695312 286.898438 C 197.226562 283.417969 197.722656 279.574219 198.183594 275.410156 C 203.839844 275.402344 209.378906 275.386719 214.773438 275.367188 C 208.621094 290.488281 200.984375 300.570312 192.890625 303.703125 C 194.171875 300.351562 195.449219 295.097656 196.695312 286.898438 Z M 181.5 275.421875 C 183.007812 275.417969 184.53125 275.417969 186.070312 275.417969 C 188.578125 275.417969 191.066406 275.417969 193.539062 275.414062 C 193.199219 278.414062 192.84375 281.242188 192.472656 283.875 C 190.382812 298.648438 188.386719 303.070312 187.519531 304.355469 C 186.652344 303.074219 184.660156 298.667969 182.574219 283.960938 C 182.199219 281.308594 181.839844 278.453125 181.5 275.421875 Z M 160.304688 275.457031 C 165.675781 275.441406 171.171875 275.429688 176.851562 275.425781 C 177.320312 279.617188 177.820312 283.484375 178.351562 286.980469 C 179.59375 295.128906 180.867188 300.359375 182.144531 303.703125 C 174.070312 300.570312 166.449219 290.523438 160.304688 275.457031 Z M 155.308594 275.46875 C 157.054688 279.933594 158.9375 284.035156 160.949219 287.738281 C 163.871094 293.113281 167.011719 297.527344 170.3125 300.929688 C 163.097656 297.671875 156.210938 292.355469 149.90625 285.117188 C 147.339844 282.175781 144.910156 278.960938 142.617188 275.496094 C 146.441406 275.492188 150.382812 275.480469 154.441406 275.472656 C 154.730469 275.46875 155.019531 275.46875 155.308594 275.46875 Z M 249.464844 236.066406 C 246.023438 249.011719 241.273438 260.691406 235.4375 270.644531 C 230.949219 270.675781 226.285156 270.703125 221.484375 270.726562 C 225.019531 260.617188 227.894531 248.925781 229.976562 236.066406 Z M 145.0625 236.066406 C 147.152344 248.980469 150.039062 260.722656 153.597656 270.855469 C 148.816406 270.867188 144.183594 270.878906 139.738281 270.886719 C 133.839844 260.882812 129.039062 249.117188 125.570312 236.066406 Z M 120.800781 236.066406 C 124.175781 249.152344 128.808594 260.867188 134.40625 270.894531 C 130.09375 270.898438 125.976562 270.894531 122.070312 270.886719 C 114.164062 261.027344 107.597656 249.296875 102.816406 236.066406 Z M 298.578125 231.90625 C 298.261719 231.773438 297.933594 231.722656 297.609375 231.730469 C 297.285156 231.558594 296.921875 231.453125 296.527344 231.453125 L 77.457031 231.453125 C 76.417969 231.453125 75.550781 232.140625 75.261719 233.085938 C 75.003906 233.652344 74.96875 234.316406 75.230469 234.933594 C 81.503906 249.761719 90.582031 263.085938 101.941406 274.273438 C 102.128906 274.570312 102.386719 274.8125 102.683594 274.996094 C 107.8125 279.964844 113.390625 284.5 119.382812 288.546875 C 139.535156 302.164062 163.097656 309.363281 187.519531 309.363281 C 211.9375 309.363281 235.5 302.164062 255.65625 288.546875 C 275.320312 275.261719 290.589844 256.722656 299.804688 234.933594 C 300.300781 233.757812 299.753906 232.40625 298.578125 231.90625 " fill-opacity="1" fill-rule="nonzero"/></g><g clip-path="url(#d10fa6952b)"><path fill="#0a5acc" d="M 121.597656 90.523438 C 128.359375 85.917969 135.523438 82.066406 142.984375 79 C 139.421875 81.28125 135.957031 83.84375 132.613281 86.683594 C 127.949219 90.640625 123.601562 95.066406 119.597656 99.894531 C 116.046875 99.933594 112.652344 99.976562 109.4375 100.023438 C 113.257812 96.613281 117.316406 93.4375 121.597656 90.523438 Z M 265.675781 100.039062 C 262.476562 99.992188 259.0625 99.949219 255.449219 99.90625 C 251.414062 95.039062 247.027344 90.582031 242.324219 86.597656 C 239.011719 83.792969 235.582031 81.261719 232.054688 79.003906 C 244.386719 84.058594 255.757812 91.175781 265.675781 100.039062 Z M 294.472656 139.394531 L 277.292969 139.429688 C 272.851562 126.511719 266.695312 114.753906 259.109375 104.566406 C 263.027344 104.617188 266.691406 104.667969 270.058594 104.726562 C 270.070312 104.726562 270.085938 104.726562 270.097656 104.726562 C 270.257812 104.726562 270.414062 104.707031 270.566406 104.675781 C 280.394531 114.53125 288.546875 126.226562 294.472656 139.394531 Z M 134.25 104.375 C 128.605469 114.550781 123.953125 126.457031 120.585938 139.757812 L 102.5 139.796875 C 107.183594 126.5625 113.730469 114.628906 121.8125 104.484375 C 125.777344 104.445312 129.929688 104.40625 134.25 104.375 Z M 136.960938 99.738281 C 133.09375 99.765625 129.347656 99.796875 125.746094 99.828125 C 128.84375 96.367188 132.128906 93.148438 135.601562 90.203125 C 142.363281 84.457031 149.632812 79.90625 157.230469 76.609375 C 149.738281 82.332031 142.882812 90.148438 136.960938 99.738281 Z M 238.074219 99.75 C 232.148438 90.148438 225.28125 82.320312 217.777344 76.59375 C 229.449219 81.644531 240.179688 89.5625 249.355469 99.84375 C 245.746094 99.808594 241.984375 99.777344 238.074219 99.75 Z M 198.671875 104.203125 C 204.777344 104.210938 210.753906 104.226562 216.546875 104.25 C 220.195312 114.285156 223.230469 126.199219 225.398438 139.539062 L 201.109375 139.589844 C 200.519531 126.40625 199.691406 114.457031 198.671875 104.203125 Z M 181.007812 104.195312 C 182.6875 104.195312 184.371094 104.191406 186.070312 104.191406 C 188.742188 104.191406 191.394531 104.195312 194.03125 104.199219 C 195.058594 114.433594 195.894531 126.417969 196.488281 139.597656 L 178.542969 139.636719 C 179.140625 126.441406 179.976562 114.441406 181.007812 104.195312 Z M 158.488281 104.242188 C 164.277344 104.21875 170.25 104.207031 176.367188 104.199219 C 175.34375 114.46875 174.515625 126.441406 173.921875 139.644531 L 149.613281 139.699219 C 151.785156 126.289062 154.824219 114.316406 158.488281 104.242188 Z M 160.902344 87.34375 C 158.894531 91.050781 157.007812 95.164062 155.265625 99.636719 C 150.890625 99.65625 146.621094 99.675781 142.484375 99.699219 C 144.792969 96.195312 147.246094 92.9375 149.835938 89.957031 C 156.164062 82.675781 163.074219 77.335938 170.3125 74.0625 C 166.992188 77.488281 163.839844 81.925781 160.902344 87.34375 Z M 178.339844 88.109375 C 177.808594 91.585938 177.3125 95.421875 176.851562 99.582031 C 171.191406 99.585938 165.652344 99.601562 160.265625 99.617188 C 166.417969 84.503906 174.050781 74.425781 182.148438 71.292969 C 180.863281 74.644531 179.585938 79.902344 178.339844 88.109375 Z M 193.539062 99.578125 C 191.066406 99.578125 188.578125 99.578125 186.070312 99.578125 C 184.539062 99.578125 183.015625 99.578125 181.5 99.578125 C 181.835938 96.582031 182.191406 93.761719 182.5625 91.132812 C 184.648438 76.347656 186.648438 71.925781 187.519531 70.640625 C 188.382812 71.921875 190.375 76.328125 192.460938 91.03125 C 192.835938 93.691406 193.195312 96.546875 193.539062 99.578125 Z M 204.722656 74.0625 C 211.9375 77.324219 218.824219 82.636719 225.132812 89.875 C 227.75 92.878906 230.230469 96.167969 232.558594 99.714844 C 228.425781 99.6875 224.15625 99.664062 219.773438 99.644531 C 218.015625 95.136719 216.117188 90.992188 214.085938 87.257812 C 211.164062 81.878906 208.023438 77.46875 204.722656 74.0625 Z M 214.769531 99.625 C 209.375 99.605469 203.835938 99.59375 198.183594 99.585938 C 197.71875 95.386719 197.214844 91.511719 196.683594 88.011719 C 195.441406 79.867188 194.167969 74.632812 192.890625 71.292969 C 200.980469 74.429688 208.617188 84.511719 214.769531 99.625 Z M 125.351562 139.746094 C 128.808594 126.472656 133.640625 114.503906 139.605469 104.335938 C 144.101562 104.304688 148.757812 104.28125 153.558594 104.261719 C 149.945312 114.570312 147.027344 126.539062 144.9375 139.707031 Z M 230.070312 139.527344 C 227.980469 126.4375 225.074219 114.53125 221.484375 104.269531 C 226.285156 104.292969 230.949219 104.320312 235.4375 104.347656 C 241.359375 114.445312 246.164062 126.320312 249.613281 139.488281 Z M 254.378906 139.476562 C 251.019531 126.296875 246.394531 114.488281 240.789062 104.386719 C 245.148438 104.421875 249.320312 104.457031 253.277344 104.5 C 261.144531 114.40625 267.671875 126.175781 272.40625 139.4375 Z M 104.472656 104.714844 C 108.039062 104.65625 111.871094 104.601562 115.933594 104.550781 C 108.269531 114.839844 102.066406 126.738281 97.613281 139.804688 L 80.363281 139.84375 C 86.214844 126.691406 94.382812 114.824219 104.472656 104.714844 Z M 76.996094 144.464844 C 76.996094 144.464844 77 144.464844 77 144.464844 L 296.535156 144.003906 C 297.359375 144.003906 298.078125 143.5625 298.484375 142.910156 C 298.492188 142.90625 298.5 142.90625 298.503906 142.902344 C 299.675781 142.40625 300.222656 141.050781 299.726562 139.878906 C 280.5625 94.777344 236.515625 65.632812 187.519531 65.632812 C 162.933594 65.632812 139.238281 72.921875 118.996094 86.707031 C 99.238281 100.164062 83.980469 118.914062 74.871094 140.929688 C 74.730469 141.265625 74.683594 141.617188 74.707031 141.960938 C 74.699219 142.03125 74.6875 142.09375 74.6875 142.164062 C 74.691406 143.4375 75.722656 144.464844 76.996094 144.464844 " fill-opacity="1" fill-rule="nonzero"/></g><g clip-path="url(#6bc7b2243a)"><path fill="#00bf63" d="M 238.882812 96.597656 L 233.464844 100.300781 C 205.148438 119.664062 176.148438 159.753906 161.683594 192.34375 C 159.449219 189.21875 158.773438 188.183594 156.609375 184.703125 C 147.761719 172.765625 136.546875 162.515625 131.226562 158.730469 L 122.914062 162.203125 L 123.175781 162.699219 C 128.917969 168.976562 138.992188 182.917969 154.171875 213.632812 C 155.101562 214.957031 156.09375 216.261719 157.226562 217.476562 C 160.195312 220.65625 163.242188 221.324219 165.273438 221.324219 C 165.277344 221.324219 165.277344 221.324219 165.277344 221.324219 C 171.074219 221.324219 174.492188 216.75 176.84375 211.394531 C 192.050781 154.984375 227.980469 116.148438 243.519531 102.847656 Z M 238.882812 96.597656 " fill-opacity="1" fill-rule="nonzero"/></g><g fill="#00bf63" fill-opacity="1"><g transform="translate(72.824371, 216.357451)"><g><path d="M 15.734375 -31 C 16.984375 -32.601562 18.613281 -33.804688 20.625 -34.609375 C 22.644531 -35.410156 24.957031 -35.8125 27.5625 -35.8125 L 27.5625 -24.703125 C 26.4375 -24.828125 25.503906 -24.890625 24.765625 -24.890625 C 22.117188 -24.890625 20.046875 -24.175781 18.546875 -22.75 C 17.054688 -21.320312 16.3125 -19.132812 16.3125 -16.1875 L 16.3125 0 L 3.96875 0 L 3.96875 -35.234375 L 15.734375 -35.234375 Z M 15.734375 -31 "/></g></g></g><g fill="#00bf63" fill-opacity="1"><g transform="translate(101.16097, 216.357451)"><g><path d="M 39.96875 -17.546875 C 39.96875 -17.460938 39.90625 -16.445312 39.78125 -14.5 L 14.171875 -14.5 C 14.691406 -12.675781 15.695312 -11.273438 17.1875 -10.296875 C 18.6875 -9.328125 20.5625 -8.84375 22.8125 -8.84375 C 24.5 -8.84375 25.960938 -9.078125 27.203125 -9.546875 C 28.441406 -10.023438 29.6875 -10.804688 30.9375 -11.890625 L 37.4375 -5.140625 C 34.019531 -1.328125 29.015625 0.578125 22.421875 0.578125 C 18.304688 0.578125 14.6875 -0.195312 11.5625 -1.75 C 8.445312 -3.3125 6.03125 -5.476562 4.3125 -8.25 C 2.601562 -11.03125 1.75 -14.175781 1.75 -17.6875 C 1.75 -21.144531 2.582031 -24.25 4.25 -27 C 5.925781 -29.757812 8.234375 -31.914062 11.171875 -33.46875 C 14.117188 -35.03125 17.4375 -35.8125 21.125 -35.8125 C 24.632812 -35.8125 27.816406 -35.082031 30.671875 -33.625 C 33.535156 -32.175781 35.800781 -30.078125 37.46875 -27.328125 C 39.132812 -24.578125 39.96875 -21.316406 39.96875 -17.546875 Z M 21.1875 -27.046875 C 19.28125 -27.046875 17.6875 -26.503906 16.40625 -25.421875 C 15.132812 -24.335938 14.320312 -22.863281 13.96875 -21 L 28.40625 -21 C 28.0625 -22.863281 27.25 -24.335938 25.96875 -25.421875 C 24.6875 -26.503906 23.09375 -27.046875 21.1875 -27.046875 Z M 21.1875 -27.046875 "/></g></g></g><g fill="#00bf63" fill-opacity="1"><g transform="translate(142.236033, 216.357451)"><g><path d="M 41.078125 -35.234375 L 26.515625 0 L 13.78125 0 L -0.71875 -35.234375 L 11.953125 -35.234375 L 20.40625 -13.71875 L 29.3125 -35.234375 Z M 41.078125 -35.234375 "/></g></g></g><g fill="#0a5acc" fill-opacity="1"><g transform="translate(186.280334, 216.357451)"><g><path d="M 4.546875 -45.5 L 17.421875 -45.5 L 17.421875 0 L 4.546875 0 Z M 4.546875 -45.5 "/></g></g></g><g fill="#0a5acc" fill-opacity="1"><g transform="translate(208.312704, 216.357451)"><g><path d="M 20.546875 0.90625 C 16.859375 0.90625 13.28125 0.453125 9.8125 -0.453125 C 6.34375 -1.359375 3.523438 -2.570312 1.359375 -4.09375 L 5.59375 -13.578125 C 7.625 -12.234375 9.984375 -11.148438 12.671875 -10.328125 C 15.359375 -9.503906 18.003906 -9.09375 20.609375 -9.09375 C 25.546875 -9.09375 28.015625 -10.332031 28.015625 -12.8125 C 28.015625 -14.101562 27.3125 -15.0625 25.90625 -15.6875 C 24.5 -16.320312 22.234375 -16.988281 19.109375 -17.6875 C 15.679688 -18.414062 12.816406 -19.203125 10.515625 -20.046875 C 8.222656 -20.890625 6.253906 -22.242188 4.609375 -24.109375 C 2.960938 -25.972656 2.140625 -28.488281 2.140625 -31.65625 C 2.140625 -34.425781 2.894531 -36.925781 4.40625 -39.15625 C 5.925781 -41.394531 8.191406 -43.160156 11.203125 -44.453125 C 14.222656 -45.753906 17.921875 -46.40625 22.296875 -46.40625 C 25.285156 -46.40625 28.226562 -46.066406 31.125 -45.390625 C 34.03125 -44.722656 36.59375 -43.738281 38.8125 -42.4375 L 34.84375 -32.890625 C 30.507812 -35.234375 26.304688 -36.40625 22.234375 -36.40625 C 19.671875 -36.40625 17.804688 -36.023438 16.640625 -35.265625 C 15.472656 -34.503906 14.890625 -33.519531 14.890625 -32.3125 C 14.890625 -31.09375 15.582031 -30.179688 16.96875 -29.578125 C 18.351562 -28.972656 20.582031 -28.34375 23.65625 -27.6875 C 27.125 -26.945312 29.992188 -26.15625 32.265625 -25.3125 C 34.546875 -24.46875 36.519531 -23.125 38.1875 -21.28125 C 39.851562 -19.445312 40.6875 -16.945312 40.6875 -13.78125 C 40.6875 -11.050781 39.925781 -8.582031 38.40625 -6.375 C 36.894531 -4.164062 34.625 -2.398438 31.59375 -1.078125 C 28.5625 0.242188 24.878906 0.90625 20.546875 0.90625 Z M 20.546875 0.90625 "/></g></g></g><g fill="#0a5acc" fill-opacity="1"><g transform="translate(250.362689, 216.357451)"><g><path d="M 27.5 0.90625 C 22.6875 0.90625 18.363281 -0.109375 14.53125 -2.140625 C 10.695312 -4.179688 7.679688 -7 5.484375 -10.59375 C 3.296875 -14.1875 2.203125 -18.238281 2.203125 -22.75 C 2.203125 -27.257812 3.296875 -31.3125 5.484375 -34.90625 C 7.679688 -38.5 10.695312 -41.3125 14.53125 -43.34375 C 18.363281 -45.382812 22.6875 -46.40625 27.5 -46.40625 C 32.300781 -46.40625 36.617188 -45.382812 40.453125 -43.34375 C 44.296875 -41.3125 47.3125 -38.5 49.5 -34.90625 C 51.6875 -31.3125 52.78125 -27.257812 52.78125 -22.75 C 52.78125 -18.238281 51.6875 -14.1875 49.5 -10.59375 C 47.3125 -7 44.296875 -4.179688 40.453125 -2.140625 C 36.617188 -0.109375 32.300781 0.90625 27.5 0.90625 Z M 27.5 -9.75 C 29.789062 -9.75 31.867188 -10.289062 33.734375 -11.375 C 35.597656 -12.457031 37.070312 -13.984375 38.15625 -15.953125 C 39.238281 -17.929688 39.78125 -20.195312 39.78125 -22.75 C 39.78125 -25.300781 39.238281 -27.5625 38.15625 -29.53125 C 37.070312 -31.507812 35.597656 -33.039062 33.734375 -34.125 C 31.867188 -35.207031 29.789062 -35.75 27.5 -35.75 C 25.195312 -35.75 23.113281 -35.207031 21.25 -34.125 C 19.382812 -33.039062 17.910156 -31.507812 16.828125 -29.53125 C 15.742188 -27.5625 15.203125 -25.300781 15.203125 -22.75 C 15.203125 -20.195312 15.742188 -17.929688 16.828125 -15.953125 C 17.910156 -13.984375 19.382812 -12.457031 21.25 -11.375 C 23.113281 -10.289062 25.195312 -9.75 27.5 -9.75 Z M 27.5 -9.75 "/></g></g></g></svg>